<svg class="tlk__resources-groups-title-link-icon" xmlns="http://www.w3.org/2000/svg" viewBox="0 0 100.2 100.2"><path class="st0" d="M83 47.5c-.8 0-1.5.7-1.5 1.5v17.5h-49v-49H50c.8 0 1.5-.7 1.5-1.5s-.7-1.5-1.5-1.5H31c-.8 0-1.5.7-1.5 1.5v13.5H17c-.8 0-1.5.7-1.5 1.5v52c0 .8.7 1.5 1.5 1.5h52c.8 0 1.5-.7 1.5-1.5V69.5H83c.8 0 1.5-.7 1.5-1.5V49c0-.8-.7-1.5-1.5-1.5zm-15.5 34h-49v-49h11V68c0 .8.7 1.5 1.5 1.5h36.5v12z"/><path class="st0" d="M83 14.5H64c-.8 0-1.5.7-1.5 1.5s.7 1.5 1.5 1.5h15.4L54.9 41.9c-.6.6-.6 1.5 0 2.1.3.3.7.4 1.1.4s.8-.1 1.1-.4l24.4-24.4V35c0 .8.7 1.5 1.5 1.5s1.5-.7 1.5-1.5V16c0-.8-.7-1.5-1.5-1.5z"/></svg>
